<?xml version="1.0" standalone="no"?>
<!DOCTYPE svg PUBLIC "-//W3C//DTD SVG 20010904//EN"
 "http://www.w3.org/TR/2001/REC-SVG-20010904/DTD/svg10.dtd">
<svg version="1.0" xmlns="http://www.w3.org/2000/svg"
 width="117.000000pt" height="117.000000pt" viewBox="0 0 117.000000 117.000000"
 preserveAspectRatio="xMidYMid meet">
<metadata>
Created by potrace 1.14, written by Peter Selinger 2001-2017
</metadata>
<g transform="translate(0.000000,117.000000) scale(0.100000,-0.100000)"
fill="#000000" stroke="none">
<path d="M413 1141 c2 -16 -3 -18 -54 -20 -19 -1 -28 -8 -33 -23 -5 -22 -6
-22 -21 -3 -12 16 -14 17 -9 3 5 -14 1 -18 -20 -18 -19 0 -26 -5 -26 -20 0
-15 -7 -20 -24 -20 -19 0 -24 -4 -21 -19 3 -15 -1 -19 -15 -16 -17 3 -36 -19
-32 -37 1 -5 -5 -8 -13 -8 -9 0 -20 -12 -25 -26 -6 -14 -14 -22 -20 -19 -5 3
-12 -5 -16 -19 -3 -13 -13 -27 -21 -30 -8 -4 -13 -13 -9 -21 3 -8 1 -15 -4
-15 -6 0 -10 -21 -10 -46 0 -41 -2 -45 -20 -39 -23 7 -26 -4 -8 -24 11 -11 10
-12 0 -7 -10 6 -13 -22 -11 -139 1 -136 2 -148 20 -152 18 -5 22 -22 23 -100
0 -12 4 -19 8 -17 4 3 8 12 8 21 0 22 13 8 18 -20 2 -12 5 -29 6 -37 2 -8 8
-16 14 -16 7 -1 17 -2 23 -3 5 0 8 -5 5 -10 -8 -13 4 -42 15 -35 5 3 14 -6 20
-20 6 -13 17 -22 24 -20 7 3 16 0 21 -7 4 -8 3 -10 -4 -5 -7 4 -12 2 -12 -4 0
-6 13 -13 30 -16 21 -5 30 -12 30 -25 0 -19 19 -24 65 -19 20 2 20 2 0 -16
-11 -11 -16 -16 -11 -11 6 4 17 7 25 7 14 0 14 -1 1 -10 -11 -7 -7 -10 20 -11
19 -1 39 -1 43 0 4 1 16 -3 27 -9 12 -7 20 -7 23 0 3 6 4 5 3 -2 -2 -7 -10
-12 -20 -10 -9 2 -16 -1 -16 -6 0 -5 72 -10 160 -11 107 -1 160 1 160 8 0 6
-5 10 -11 8 -6 -1 -14 5 -16 13 -3 9 -1 11 4 5 12 -14 33 -17 33 -4 0 8 6 7
17 -2 11 -10 14 -10 9 -1 -5 8 1 12 22 12 16 0 41 9 56 21 14 11 35 21 46 22
12 1 19 7 17 17 -1 9 7 16 21 18 14 2 22 10 22 23 0 16 5 19 20 14 14 -5 20
-2 20 10 0 9 5 13 10 10 6 -3 10 -2 10 4 0 5 -6 12 -12 15 -7 4 -3 4 10 2 18
-3 22 0 22 19 0 15 8 26 20 30 11 3 21 15 21 26 3 39 15 62 30 54 5 -4 9 7 9
24 0 16 6 32 13 34 9 4 9 6 0 6 -20 1 -15 18 7 24 17 4 20 14 21 74 2 119 -1
235 -7 244 -3 5 -21 9 -40 9 -31 0 -40 -8 -35 -34 1 -5 -7 -6 -19 -3 -11 3
-20 1 -20 -5 0 -5 -9 -6 -20 -3 -14 5 -20 2 -20 -9 0 -9 5 -16 10 -16 6 0 10
-5 10 -11 0 -5 -5 -7 -11 -3 -8 5 -8 1 0 -14 8 -15 8 -22 -2 -26 -6 -4 -3 -5
9 -2 19 3 21 -1 20 -40 0 -32 -3 -40 -12 -33 -8 7 -15 6 -20 -2 -4 -8 -3 -9 4
-5 7 4 12 1 12 -8 0 -9 5 -16 10 -16 6 0 10 -5 10 -12 0 -6 -9 -3 -21 8 -15
14 -20 15 -17 4 2 -8 8 -18 13 -22 6 -5 5 -8 -2 -8 -7 0 -13 -4 -13 -10 0 -5
8 -7 18 -3 16 5 16 5 0 -8 -10 -8 -19 -30 -22 -49 -2 -21 -9 -36 -18 -38 -9
-2 -18 -17 -22 -33 -3 -17 -10 -28 -15 -24 -5 3 -13 0 -17 -6 -4 -7 -3 -9 4
-5 6 3 13 2 16 -3 3 -5 -10 -12 -29 -15 -20 -4 -33 -11 -30 -17 4 -5 11 -7 16
-4 5 4 9 1 9 -5 0 -7 -6 -10 -13 -7 -11 4 -38 -15 -37 -28 0 -8 -11 -8 -18 1
-4 4 -1 4 7 -1 10 -5 12 -4 7 4 -10 16 -26 4 -19 -15 4 -10 1 -15 -8 -14 -29
4 -39 -1 -39 -19 0 -15 -8 -19 -32 -20 -121 -4 -136 -6 -130 -19 2 -8 8 -10
11 -5 7 11 58 9 69 -2 4 -5 0 -6 -10 -2 -9 3 -19 3 -22 -1 -10 -9 -106 -9
-100 0 3 4 0 8 -5 8 -6 0 -11 -4 -11 -8 0 -11 -47 -9 -57 2 -4 5 -2 6 5 2 6
-4 12 -2 12 3 0 6 5 11 11 11 5 0 7 -6 3 -12 -5 -9 -2 -9 9 1 23 18 22 19 -18
16 -60 -4 -147 15 -141 31 3 8 -1 15 -9 15 -8 1 -21 2 -27 3 -7 0 -13 7 -13
14 0 14 -13 17 -23 6 -4 -4 -1 -4 5 0 9 5 11 2 7 -8 -7 -18 -25 -11 -23 7 4
34 -4 46 -41 61 -28 11 -38 20 -34 31 4 8 2 15 -3 15 -5 0 -9 16 -8 36 1 29
-1 33 -11 20 -14 -20 -20 -20 -28 0 -3 8 -2 12 3 9 5 -3 12 -1 16 5 3 5 0 10
-8 10 -9 0 -13 10 -12 28 2 39 -4 52 -29 52 -16 0 -18 2 -6 9 8 6 17 8 21 5 9
-5 6 17 -4 34 -5 7 -12 10 -16 8 -4 -3 -8 1 -8 9 0 8 6 15 14 15 7 0 13 -5 13
-12 0 -6 3 -8 7 -5 3 4 -4 17 -16 28 -23 22 -22 40 2 21 11 -9 13 -5 12 24 -1
19 2 37 7 40 5 3 4 12 -3 20 -7 8 -7 14 -1 14 5 0 10 6 9 13 -2 50 4 67 23 67
12 0 17 5 14 14 -3 8 -1 17 5 20 6 4 8 13 5 20 -7 18 12 30 22 15 5 -8 3 -9
-6 -4 -9 6 -11 4 -6 -4 9 -14 19 -7 22 15 5 32 14 44 29 38 10 -4 15 0 15 14
0 11 7 23 16 26 14 5 15 4 4 -9 -10 -11 -10 -15 0 -15 6 0 14 9 17 20 4 13 14
20 30 20 16 0 23 5 21 16 -3 16 28 24 103 27 17 0 25 5 22 13 -2 7 1 15 8 20
7 4 10 3 7 -2 -3 -5 0 -15 7 -21 11 -10 15 -9 20 6 4 14 15 18 55 17 50 -2 93
-22 46 -22 -14 0 -22 4 -19 9 3 5 -4 4 -16 -2 -11 -7 -21 -13 -21 -14 0 -1 22
-3 49 -4 43 -1 49 1 45 15 -5 15 -4 15 6 0 6 -10 22 -18 35 -18 14 0 25 -4 25
-10 0 -5 5 -10 11 -10 5 0 7 5 3 12 -4 7 -3 8 4 4 7 -4 12 -13 12 -21 0 -7 10
-15 23 -17 18 -3 22 -9 21 -40 -1 -21 3 -38 8 -38 5 0 6 -4 3 -10 -3 -5 -1
-10 4 -10 6 0 11 6 11 13 0 8 3 7 10 -3 5 -8 5 -19 0 -25 -6 -7 0 -11 18 -13
28 -2 57 -22 32 -22 -31 0 4 -14 40 -16 34 -2 40 1 40 18 0 15 5 18 20 13 11
-4 20 -2 20 4 0 6 9 11 21 11 11 0 17 5 14 10 -4 6 -10 8 -15 5 -5 -3 -11 -1
-15 4 -3 6 3 8 15 6 17 -3 20 1 20 35 0 21 6 41 13 43 9 4 9 6 0 6 -7 1 -13
14 -13 30 0 24 -3 28 -20 24 -15 -4 -20 0 -20 16 0 14 -6 21 -18 21 -11 0 -24
10 -31 23 l-11 22 6 -22 c5 -21 2 -23 -30 -23 -29 0 -36 4 -36 20 0 14 -7 20
-21 20 -12 0 -28 8 -35 18 -11 13 -13 14 -9 1 4 -9 0 -16 -8 -16 -9 0 -12 7
-9 19 4 15 -2 18 -32 18 -20 0 -39 0 -43 -1 -4 0 -10 9 -15 20 -8 22 -28 29
-28 10 0 -5 4 -8 8 -5 5 3 9 -2 9 -11 0 -13 -4 -11 -18 6 -18 21 -24 22 -159
20 -120 -3 -140 -5 -137 -18z m32 -9 c-3 -3 -11 0 -18 7 -9 10 -8 11 6 5 10
-3 15 -9 12 -12z m42 -108 c-3 -3 -12 -4 -19 -1 -8 3 -5 6 6 6 11 1 17 -2 13
-5z m-407 -180 c0 -8 -4 -12 -10 -9 -5 3 -10 10 -10 16 0 5 5 9 10 9 6 0 10
-7 10 -16z m1057 -119 c0 -6 -6 -12 -12 -12 -6 0 -12 6 -12 12 0 6 6 12 12 12
6 0 12 -6 12 -12z m-991 -66 c0 -16 -3 -29 -7 -29 -3 0 -6 15 -5 34 1 41 11
37 12 -5z m884 -9 c0 -5 -4 -10 -10 -10 -5 0 -10 5 -10 10 0 6 5 10 10 10 6 0
10 -4 10 -10z m-880 -114 c0 -11 -19 -15 -25 -6 -3 5 1 10 9 10 9 0 16 -2 16
-4z m-118 -91 c0 -5 -5 -10 -11 -12 -8 -1 -7 0 0 4 8 4 7 8 -2 15 -11 8 -11 9
-1 6 8 -2 14 -8 14 -13z m1105 0 c0 -8 -4 -12 -9 -9 -5 3 -6 10 -3 15 9 13 12
11 12 -6z m-863 -173 c3 -5 -1 -9 -9 -9 -8 0 -15 4 -15 9 0 4 4 8 9 8 6 0 12
-4 15 -8z m576 -186 c0 -11 -19 -15 -25 -6 -3 5 1 10 9 10 9 0 16 -2 16 -4z"/>
<path d="M175 1030 c-3 -5 -1 -10 4 -10 6 0 11 5 11 10 0 6 -2 10 -4 10 -3 0
-8 -4 -11 -10z"/>
<path d="M1049 1023 c-13 -16 -12 -17 4 -4 9 7 17 15 17 17 0 8 -8 3 -21 -13z"/>
<path d="M561 1014 c0 -11 3 -14 6 -6 3 7 2 16 -1 19 -3 4 -6 -2 -5 -13z"/>
<path d="M380 986 c0 -2 8 -10 18 -17 15 -13 16 -12 3 4 -13 16 -21 21 -21 13z"/>
<path d="M520 832 c-14 -2 -31 -11 -39 -20 -13 -16 -13 -16 -8 1 4 9 2 17 -3
17 -6 0 -10 -9 -10 -20 0 -14 -7 -20 -24 -20 -15 0 -26 -7 -29 -20 -3 -11 -12
-20 -21 -20 -10 0 -16 -9 -16 -22 0 -13 -5 -30 -11 -38 -9 -13 -10 -12 -5 3 3
9 1 17 -4 17 -17 0 -22 -21 -8 -37 10 -13 10 -15 0 -9 -10 6 -13 -13 -11 -93
1 -55 5 -98 10 -95 5 3 9 0 9 -7 0 -7 3 -9 6 -6 4 4 2 13 -4 20 -9 10 -8 14 3
14 7 0 14 -3 13 -6 0 -3 0 -21 1 -38 1 -26 5 -33 21 -33 13 0 20 -7 20 -20 0
-15 7 -20 27 -20 14 0 24 -3 20 -6 -3 -4 1 -13 9 -21 14 -14 34 -15 217 -12
11 0 17 7 15 17 -2 11 5 18 20 20 20 3 27 13 23 35 0 4 8 7 19 7 18 0 24 12
23 47 -1 7 3 11 7 8 5 -3 10 -2 13 2 2 5 2 2 1 -4 -2 -7 1 -13 6 -13 10 0 13
34 12 130 0 101 -1 108 -23 115 -14 5 -19 13 -16 26 4 15 0 19 -19 19 -17 0
-24 6 -24 20 0 13 -7 20 -20 20 -11 0 -20 5 -20 11 0 5 -4 8 -8 5 -4 -2 -14 0
-22 6 -12 8 -12 9 2 4 10 -3 20 -1 23 4 4 6 -9 10 -27 11 -18 0 -53 1 -78 2
-25 1 -56 1 -70 -1z m285 -141 c3 -5 0 -13 -6 -17 -7 -4 -9 -3 -5 4 3 5 0 13
-6 15 -9 4 -10 6 -1 6 6 1 14 -3 18 -8z"/>
<path d="M1003 807 c0 -8 6 -14 14 -14 9 0 10 4 2 14 -6 7 -12 13 -14 13 -1 0
-2 -6 -2 -13z"/>
<path d="M6 772 c-3 -5 1 -9 9 -9 8 0 12 4 9 9 -3 4 -7 8 -9 8 -2 0 -6 -4 -9
-8z"/>
<path d="M996 602 c-2 -4 -1 -14 4 -22 7 -11 9 -9 7 8 -1 24 -3 26 -11 14z"/>
<path d="M225 320 c-3 -5 1 -10 10 -10 9 0 13 5 10 10 -3 6 -8 10 -10 10 -2 0
-7 -4 -10 -10z"/>
<path d="M1090 309 c0 -5 5 -7 10 -4 6 3 10 8 10 11 0 2 -4 4 -10 4 -5 0 -10
-5 -10 -11z"/>
<path d="M750 201 c0 -5 5 -13 10 -16 6 -3 10 -2 10 4 0 5 -4 13 -10 16 -5 3
-10 2 -10 -4z"/>
</g>
</svg>
