<svg width="1118" height="953" viewBox="0 0 1118 953" fill="none" xmlns="http://www.w3.org/2000/svg">
<path d="M788.393 268.219C760.955 268.219 738.713 248.286 738.713 223.694C738.713 199.101 760.955 179.168 788.393 179.168H833.858" stroke="#7CABFF" stroke-width="8" stroke-linecap="round" stroke-linejoin="round"/>
<path d="M844.483 572.026C824.584 637.837 867.631 705.236 940.627 722.572C1013.62 739.899 1088.94 700.598 1108.84 634.789C1128.74 568.978 1085.69 501.581 1012.69 484.247" stroke="#7CABFF" stroke-width="8" stroke-linecap="round" stroke-linejoin="round"/>
<path d="M836.428 733.689C872.141 770.306 923.603 789.453 970.57 787.566" stroke="#8DCFFF" stroke-width="8" stroke-linecap="round" stroke-linejoin="round"/>
<path d="M985.039 277.287C985.039 305.065 1010.09 327.583 1040.98 327.583C1071.88 327.583 1096.92 305.065 1096.92 277.287C1096.92 249.508 1071.88 226.99 1040.98 226.99H853.609" stroke="#CED6E0" stroke-width="8" stroke-linecap="round" stroke-linejoin="round"/>
<path d="M533.526 387.135C533.526 365.276 553.364 347.556 577.834 347.556C602.305 347.556 622.141 365.276 622.141 387.135C622.141 408.993 602.305 426.713 577.834 426.713H507.409" stroke="#CED6E0" stroke-width="8" stroke-linecap="round" stroke-linejoin="round"/>
<path d="M616.737 750.35C641.465 750.35 661.511 767.885 661.511 789.516C661.511 811.148 641.465 828.682 616.737 828.682C592.009 828.682 571.963 811.148 571.963 789.516V713.512" stroke="#62BDFF" stroke-width="8" stroke-linecap="round" stroke-linejoin="round"/>
<path d="M1019.18 173.806C1071.45 173.806 1113.81 135.842 1113.81 89.0115C1113.81 42.1808 1071.45 4.21692 1019.18 4.21692H839" stroke="#62BDFF" stroke-width="8" stroke-linecap="round" stroke-linejoin="round"/>
<path fill-rule="evenodd" clip-rule="evenodd" d="M924.556 89.0115C924.556 68.7605 943.343 52.3436 966.518 52.3436H1009.63C1032.81 52.3436 1051.59 68.7605 1051.59 89.0115C1051.59 109.263 1032.81 125.679 1009.63 125.679H966.518C943.343 125.679 924.556 109.263 924.556 89.0115Z" stroke="#A7DAFF" stroke-width="8" stroke-linecap="round" stroke-linejoin="round"/>
<path d="M211.593 605.104H323.862C383.952 605.104 432.663 648.85 432.663 702.812" stroke="#62BDFF" stroke-width="8" stroke-linecap="round" stroke-linejoin="round"/>
<path d="M4.18518 548.507H228.256C278.804 548.507 302.333 527.229 302.333 482.046" stroke="#CED6E0" stroke-width="8" stroke-linecap="round" stroke-linejoin="round"/>
<path d="M977.286 558.648C1006.89 558.648 1030.89 579.723 1030.89 605.712C1030.89 631.702 1006.89 652.778 977.286 652.778C947.683 652.778 923.684 631.702 923.684 605.712V299.047" stroke="#8DCFFF" stroke-width="8" stroke-linecap="round" stroke-linejoin="round"/>
<path d="M572.083 590.251C572.083 541.981 615.754 502.848 669.625 502.848H841.49" stroke="#7CABFF" stroke-width="8" stroke-linecap="round" stroke-linejoin="round"/>
<path d="M841.593 309.019V349.949C841.593 391.261 803.458 424.752 756.41 424.752H689.926" stroke="#6386C4" stroke-width="8" stroke-linecap="round" stroke-linejoin="round"/>
<path d="M394.856 523.367V482.593C394.856 459.116 415.162 439.449 442.429 434.317" stroke="#8DCFFF" stroke-width="8" stroke-linecap="round" stroke-linejoin="round"/>
<path d="M939.463 841.85C939.463 847.244 939.463 915.14 939.463 948.417" stroke="#CED6E0" stroke-width="8" stroke-linecap="round" stroke-linejoin="round"/>
<path d="M497.426 498.088C497.426 498.088 497.426 582.281 497.426 652.781" stroke="#CED6E0" stroke-width="8" stroke-linecap="round" stroke-linejoin="round"/>
<path d="M1005.8 374.3C1005.8 377.09 1005.8 412.208 1005.8 429.425" stroke="#6386C3" stroke-width="8" stroke-linecap="round" stroke-linejoin="round"/>
<path d="M774.736 879.664V645.662C774.736 612.437 744.265 585.498 706.684 585.498C669.102 585.498 638.634 612.437 638.634 645.662V680.251" stroke="#6386C4" stroke-width="8" stroke-linecap="round" stroke-linejoin="round"/>
</svg>
